<svg xmlns="http://www.w3.org/2000/svg" width="24.435" height="22.049" viewBox="0 0 24.435 22.049"><defs><style>.calendario{fill:#b8b8b8;}</style></defs><g transform="translate(0 0)"><path class="calendario" d="M24.006,38.861V28.675a2.15,2.15,0,0,0-2.148-2.148H19.042v-.811a.716.716,0,0,0-1.432,0v.811H12.933v-.811a.716.716,0,0,0-1.432,0v.811H6.825v-.811a.716.716,0,0,0-1.432,0v.811H2.148A2.15,2.15,0,0,0,0,28.675V41.847a2.15,2.15,0,0,0,2.148,2.148H13.264a5.965,5.965,0,0,0,10.741-5.133Zm-4.82-2.255a4.545,4.545,0,0,1,3.761,3.761H19.185ZM2.148,42.563a.717.717,0,0,1-.716-.716V28.675a.717.717,0,0,1,.716-.716H5.393v.859a.716.716,0,0,0,1.432,0v-.859H11.5v.859a.716.716,0,0,0,1.432,0v-.859h4.677v.859a.716.716,0,0,0,1.432,0v-.859h2.816a.717.717,0,0,1,.716.716v8.083a5.965,5.965,0,0,0-9.884,5.8ZM18.47,45.617a4.534,4.534,0,0,1-.716-9.011v4.477a.716.716,0,0,0,.716.716h4.477A4.541,4.541,0,0,1,18.47,45.617Z" transform="translate(0 -25)"/><path class="calendario" d="M67.013,185H65.774a.774.774,0,1,0,0,1.548h1.239a.774.774,0,1,0,0-1.548Z" transform="translate(-61.646 -177.407)"/><path class="calendario" d="M155.013,185h-1.239a.774.774,0,1,0,0,1.548h1.239a.774.774,0,1,0,0-1.548Z" transform="translate(-145.768 -177.407)"/><path class="calendario" d="M155.013,249h-1.239a.774.774,0,1,0,0,1.548h1.239a.774.774,0,1,0,0-1.548Z" transform="translate(-145.768 -238.37)"/><path class="calendario" d="M67.013,249H65.774a.774.774,0,1,0,0,1.548h1.239a.774.774,0,1,0,0-1.548Z" transform="translate(-61.646 -238.37)"/><path class="calendario" d="M67.013,313H65.774a.774.774,0,0,0,0,1.548h1.239a.774.774,0,0,0,0-1.548Z" transform="translate(-61.646 -299.333)"/><path class="calendario" d="M155.013,313h-1.239a.774.774,0,1,0,0,1.548h1.239a.774.774,0,0,0,0-1.548Z" transform="translate(-145.768 -299.333)"/></g></svg>