<svg xmlns="http://www.w3.org/2000/svg" width="23.359" height="30.666" viewBox="0 0 23.359 30.666"><defs><style>.a{fill:#fff;}</style></defs><g transform="translate(-61)"><path class="a" d="M63.7,30.666H81.664a2.7,2.7,0,0,0,2.7-2.7V8.984H78.07a2.7,2.7,0,0,1-2.7-2.7V0H63.7A2.7,2.7,0,0,0,61,2.7V27.971A2.7,2.7,0,0,0,63.7,30.666Zm3.594-18.028H78.07a.9.9,0,1,1,0,1.8H67.289a.9.9,0,0,1,0-1.8Zm0,3.594H78.07a.9.9,0,1,1,0,1.8H67.289a.9.9,0,0,1,0-1.8Zm0,3.594H78.07a.9.9,0,1,1,0,1.8H67.289a.9.9,0,0,1,0-1.8Zm0,3.594h7.187a.9.9,0,1,1,0,1.8H67.289a.9.9,0,0,1,0-1.8Z"/><path class="a" d="M331.9,15.45h5.763L331,8.789v5.763A.9.9,0,0,0,331.9,15.45Z" transform="translate(-253.828 -8.263)"/></g></svg>