<svg xmlns="http://www.w3.org/2000/svg" width="27.352" height="34.981" viewBox="0 0 27.352 34.981"><defs><style>.a{fill:#fff;}</style></defs><g transform="translate(0 -21.451)"><g transform="translate(0 21.451)"><g transform="translate(1.092 22.85)"><path class="a" d="M20.729,216.321c0,1.021-.567,1.857-1.26,1.857h-5.21c-.693,0-1.26-.836-1.26-1.857V207.9c0-1.021.567-1.857,1.26-1.857h5.21c.693,0,1.26.836,1.26,1.857Z" transform="translate(-12.998 -206.047)"/></g><g transform="translate(10.357 18.394)"><path class="a" d="M130.979,184.778c0,1.021-.567,1.857-1.26,1.857h-5.21c-.693,0-1.26-.836-1.26-1.857V171.9c0-1.021.567-1.857,1.26-1.857h5.21c.693,0,1.26.836,1.26,1.857Z" transform="translate(-123.248 -170.047)"/></g><g transform="translate(19.621 13.443)"><path class="a" d="M241.229,149.729c0,1.021-.567,1.857-1.26,1.857h-5.21c-.693,0-1.26-.836-1.26-1.857V131.9c0-1.021.567-1.857,1.26-1.857h5.21c.693,0,1.26.836,1.26,1.857Z" transform="translate(-233.498 -130.047)"/></g><path class="a" d="M26.261,21.486,20.6,23.515c-.449.16-.549.685-.223,1.167l1.208,1.738a.447.447,0,0,1-.114.493,36.657,36.657,0,0,1-3.637,3.17C8.749,37.065,1.26,36.636,1.147,36.629c-.6-.045-1.115.637-1.146,1.524s.432,1.644,1.035,1.69c.044,0,.224.015.527.015,1.942,0,8.917-.494,17.282-6.923A37.818,37.818,0,0,0,23,29.272c.113-.117.311-.32.493-.047l1.321,1.946c.327.481.681.333.788-.329L26.884,22.4C26.991,21.736,26.71,21.326,26.261,21.486Z" transform="translate(0 -21.451)"/></g></g></svg>